<svg width="501" height="501" viewBox="0 0 501 501" fill="none" xmlns="http://www.w3.org/2000/svg">
<rect x="0.265625" y="0.265625" width="500" height="500" rx="100" fill="#0A0A0A"/>
<path fill-rule="evenodd" clip-rule="evenodd" d="M136.08 127.555H171.426C175.036 127.555 177.962 130.481 177.962 134.091V175.973H226.381V134.091C226.381 130.481 229.308 127.555 232.918 127.555H268.263C271.873 127.555 274.8 130.481 274.8 134.091V175.973H316.682C320.292 175.973 323.219 178.9 323.219 182.51V217.856C323.219 221.466 320.292 224.392 316.682 224.392H274.8V272.811H316.682C320.292 272.811 323.219 275.737 323.219 279.347V314.693C323.219 318.303 320.292 321.23 316.682 321.23H274.8V363.112C274.8 366.722 271.873 369.648 268.263 369.648H232.918C229.308 369.648 226.381 366.722 226.381 363.112V321.23H177.962V363.112C177.962 366.722 175.036 369.648 171.426 369.648H136.08C132.47 369.648 129.544 366.722 129.544 363.112V321.23H87.6615C84.0515 321.23 81.125 318.303 81.125 314.693V279.347C81.125 275.737 84.0515 272.811 87.6615 272.811H129.544V224.392H87.6615C84.0515 224.392 81.125 221.466 81.125 217.856V182.51C81.125 178.9 84.0515 175.973 87.6615 175.973H129.544V134.091C129.544 130.481 132.47 127.555 136.08 127.555ZM177.962 224.392H226.381V272.811H177.962V224.392Z" fill="white"/>
<path d="M371.852 327.766C371.852 324.156 374.778 321.23 378.388 321.23H413.734C417.344 321.23 420.27 324.156 420.27 327.766V363.112C420.27 366.722 417.344 369.648 413.734 369.648H378.388C374.778 369.648 371.852 366.722 371.852 363.112V327.766Z" fill="white"/>
<path d="M420.27 175.973V224.392V266.274C420.27 269.884 417.344 272.811 413.734 272.811H378.388C374.778 272.811 371.852 269.884 371.852 266.274V224.392V175.973V134.091C371.852 130.481 374.778 127.555 378.388 127.555H413.734C417.344 127.555 420.27 130.481 420.27 134.091V175.973Z" fill="white"/>
</svg>
